<svg xmlns="http://www.w3.org/2000/svg" width="1024" height="1024" viewBox="0 0 1024 1024">
  <defs>
    <filter id="shadow" x="-20%" y="-20%" width="140%" height="140%">
      <feDropShadow dx="0" dy="18" stdDeviation="18" flood-color="#000" flood-opacity="0.16"/>
    </filter>
    <style>
      .en { font-family: Inter, system-ui, -apple-system, Segoe UI, Arial, sans-serif; }
      .ar { font-family: Cairo, "Noto Sans Arabic", "Segoe UI", Arial, sans-serif; }
    </style>
  </defs>

  <rect width="1024" height="1024" fill="#F5F2EC"/>
  <rect x="112" y="112" width="800" height="800" rx="48" fill="#FFFFFF" filter="url(#shadow)"/>

  <text x="176" y="198" class="en" fill="#1B1B1B" font-size="28" letter-spacing="8">NIVRAN</text>

  <!-- Icon -->
  <g transform="translate(512 338)" fill="none" stroke-linecap="round" stroke-linejoin="round">
    <g stroke="#1B1B1B" stroke-width="8">
      <rect x="-82" y="0" width="164" height="220" rx="34"/>
      <path d="M-40 0 v-54 c0-12 10-22 22-22h36c12 0 22 10 22 22v54"/>
      <path d="M-22 -76 h110"/>
      <path d="M88 -76 v-26"/>
      <path d="M88 -102 h84 c16 0 28 12 28 28v10H88"/>
      <path d="M200 -64 h34"/>
      <path d="M0 42 v140" opacity="0.35"/>
    </g>

    <!-- droplet -->
    <g stroke="#1B1B1B" stroke-width="8">
      <path d="M156 30
               c0-26 26-46 26-82
               c0 36 26 56 26 82
               c0 28-22 50-52 50
               c-30 0-52-22-52-50z"/>
    </g>
  </g>

  <line x1="272" y1="564" x2="752" y2="564" stroke="#D8D1C6" stroke-width="3" stroke-linecap="round"/>

  <g text-anchor="middle" fill="#1B1B1B">
    <text x="512" y="638" class="en" font-size="62" font-weight="500" letter-spacing="12">NIVRAN</text>
    <text x="512" y="708" class="en" font-size="46" font-weight="700">Hand Gel</text>
    <text x="512" y="772" class="ar" font-size="46" font-weight="700" direction="rtl" unicode-bidi="bidi-override">جل يدين</text>
    <text x="512" y="832" class="en" font-size="30" font-weight="500" opacity="0.9">Wear the calm.</text>
  </g>
</svg>