<svg width="240" height="60" viewBox="0 0 240 60" fill="none" xmlns="http://www.w3.org/2000/svg">
<path d="M70.5336 1V19.6004V38.2008H65.3736L46.4595 10.9178H46.1143V38.2008H40.5V1H45.6964L64.6287 28.3193H64.9739V1H70.5336Z" fill="#C8A45A" fill-opacity="0.95"/>
<path d="M82.8027 1V38.2008H77.1885V1H82.8027Z" fill="#C8A45A" fill-opacity="0.95"/>
<path d="M92.6962 1L103.053 31.2983H103.471L113.827 1H119.895L106.023 39L103.053 35.6432L100.268 39L86.6277 1H92.6962Z" fill="#C8A45A" fill-opacity="0.95"/>
<path d="M124.374 38.2008V1H137.637C140.52 1 142.912 1.49649 144.814 2.48948C146.728 3.48247 148.157 4.85691 149.102 6.61281C150.047 8.3566 150.519 10.3728 150.519 12.6616C150.519 14.9382 150.041 16.9423 149.084 18.674C148.139 20.3936 146.71 21.7317 144.796 22.6883C142.894 23.645 140.502 24.1233 137.619 24.1233H127.571V19.2916H137.11C138.927 19.2916 140.405 19.0312 141.544 18.5105C142.694 17.9898 143.536 17.2329 144.069 16.24C144.602 15.247 144.868 14.0542 144.868 12.6616C144.868 11.2569 144.596 10.0398 144.051 9.01052C143.518 7.9812 142.676 7.19407 141.525 6.64914C140.387 6.0921 138.891 5.81358 137.038 5.81358H129.988V38.2008H124.374ZM142.743 21.4168L154.949 37.2417L145.541 38.2008L136.529 21.4168H142.743Z" fill="#C8A45A" fill-opacity="0.95"/>
<path d="M158.319 38.2008L154.949 37.2417L165.751 1.31969H172.237L185.628 38.2008H179.668L169.148 7.75717H168.858L158.319 38.2008ZM159.319 23.6329H178.651V28.3556H159.319V23.6329Z" fill="#C8A45A" fill-opacity="0.95"/>
<path d="M219.5 1V38.2008H214.34L195.426 10.9178H195.081V38.2008H189.466V1H194.663L213.595 28.3193H213.94V1H219.5Z" fill="#C8A45A" fill-opacity="0.95"/>
<path d="M55.0991 57L52.7127 48.2727H53.7866L55.6104 55.3807H55.6957L57.5536 48.2727H58.7468L60.6048 55.3807H60.69L62.5138 48.2727H63.5877L61.2013 57H60.1104L58.1843 50.0455H58.1161L56.19 57H55.0991ZM72.9031 57.1364C72.2724 57.1364 71.7283 56.9972 71.271 56.7188C70.8164 56.4375 70.4656 56.0455 70.2184 55.5426C69.9741 55.0369 69.8519 54.4489 69.8519 53.7784C69.8519 53.108 69.9741 52.517 70.2184 52.0057C70.4656 51.4915 70.8093 51.0909 71.2496 50.804C71.6928 50.5142 72.2099 50.3693 72.8008 50.3693C73.1417 50.3693 73.4783 50.4261 73.8107 50.5398C74.1431 50.6534 74.4457 50.8381 74.7184 51.0938C74.9911 51.3466 75.2085 51.6818 75.3704 52.0994C75.5323 52.517 75.6133 53.0312 75.6133 53.642V54.0682H70.5678V53.1989H74.5906C74.5906 52.8295 74.5167 52.5 74.369 52.2102C74.2241 51.9205 74.0167 51.6918 73.7468 51.5241C73.4798 51.3565 73.1644 51.2727 72.8008 51.2727C72.4002 51.2727 72.0536 51.3722 71.761 51.571C71.4712 51.767 71.2482 52.0227 71.092 52.3381C70.9357 52.6534 70.8576 52.9915 70.8576 53.3523V53.9318C70.8576 54.4261 70.9428 54.8452 71.1133 55.1889C71.2866 55.5298 71.5266 55.7898 71.8335 55.9688C72.1403 56.1449 72.4968 56.233 72.9031 56.233C73.1673 56.233 73.4059 56.196 73.619 56.1222C73.8349 56.0455 74.021 55.9318 74.1772 55.7812C74.3335 55.6278 74.4542 55.4375 74.5394 55.2102L75.511 55.483C75.4087 55.8125 75.2369 56.1023 74.9954 56.3523C74.7539 56.5994 74.4556 56.7926 74.1005 56.9318C73.7454 57.0682 73.3462 57.1364 72.9031 57.1364ZM85.0692 57.1534C84.6545 57.1534 84.2781 57.0753 83.94 56.919C83.6019 56.7599 83.3335 56.5312 83.1346 56.233C82.9357 55.9318 82.8363 55.5682 82.8363 55.142C82.8363 54.767 82.9102 54.4631 83.0579 54.2301C83.2056 53.9943 83.4031 53.8097 83.6502 53.6761C83.8974 53.5426 84.1701 53.4432 84.4684 53.3778C84.7695 53.3097 85.0721 53.2557 85.3761 53.2159C85.7738 53.1648 86.0962 53.1264 86.3434 53.1009C86.5934 53.0724 86.7752 53.0256 86.8888 52.9602C87.0053 52.8949 87.0636 52.7812 87.0636 52.6193V52.5852C87.0636 52.1648 86.9485 51.8381 86.7184 51.6051C86.4911 51.3722 86.146 51.2557 85.6829 51.2557C85.2028 51.2557 84.8263 51.3608 84.5536 51.571C84.2809 51.7812 84.0891 52.0057 83.9783 52.2443L83.0238 51.9034C83.1942 51.5057 83.4215 51.196 83.7056 50.9744C83.9925 50.75 84.305 50.5937 84.6431 50.5057C84.984 50.4148 85.3192 50.3693 85.6488 50.3693C85.859 50.3693 86.1005 50.3949 86.3732 50.446C86.6488 50.4943 86.9144 50.5952 87.1701 50.7486C87.4286 50.902 87.6431 51.1335 87.8136 51.4432C87.984 51.7528 88.0692 52.1676 88.0692 52.6875V57H87.0636V56.1136H87.0124C86.9442 56.2557 86.8306 56.4077 86.6715 56.5696C86.5124 56.7315 86.3008 56.8693 86.0366 56.983C85.7724 57.0966 85.4499 57.1534 85.0692 57.1534ZM85.2227 56.25C85.6204 56.25 85.9556 56.1719 86.2283 56.0156C86.5039 55.8594 86.7113 55.6577 86.8505 55.4105C86.9925 55.1634 87.0636 54.9034 87.0636 54.6307V53.7102C87.021 53.7614 86.9272 53.8082 86.7823 53.8509C86.6403 53.8906 86.4755 53.9261 86.288 53.9574C86.1033 53.9858 85.9229 54.0114 85.7468 54.0341C85.5735 54.054 85.4329 54.071 85.3249 54.0852C85.0636 54.1193 84.8192 54.1747 84.592 54.2514C84.3675 54.3253 84.1857 54.4375 84.0465 54.5881C83.9102 54.7358 83.842 54.9375 83.842 55.1932C83.842 55.5426 83.9712 55.8068 84.2298 55.9858C84.4911 56.1619 84.8221 56.25 85.2227 56.25ZM95.9048 57V50.4545H96.8764V51.4432H96.9446C97.0639 51.1193 97.2798 50.8565 97.5923 50.6548C97.9048 50.4531 98.2571 50.3523 98.6491 50.3523C98.723 50.3523 98.8153 50.3537 98.9261 50.3565C99.0369 50.3594 99.1207 50.3636 99.1776 50.3693V51.392C99.1435 51.3835 99.0653 51.3707 98.9432 51.3537C98.8239 51.3338 98.6974 51.3239 98.5639 51.3239C98.2457 51.3239 97.9616 51.3906 97.7116 51.5241C97.4645 51.6548 97.2685 51.8366 97.1236 52.0696C96.9815 52.2997 96.9105 52.5625 96.9105 52.858V57H95.9048ZM118.591 50.4545V51.3068H115.199V50.4545H118.591ZM116.188 48.8864H117.194V55.125C117.194 55.4091 117.235 55.6222 117.317 55.7642C117.402 55.9034 117.51 55.9972 117.641 56.0455C117.775 56.0909 117.915 56.1136 118.063 56.1136C118.174 56.1136 118.265 56.108 118.336 56.0966C118.407 56.0824 118.463 56.071 118.506 56.0625L118.711 56.9659C118.642 56.9915 118.547 57.017 118.425 57.0426C118.303 57.071 118.148 57.0852 117.961 57.0852C117.676 57.0852 117.398 57.0241 117.125 56.902C116.855 56.7798 116.631 56.5938 116.452 56.3438C116.276 56.0938 116.188 55.7784 116.188 55.3977V48.8864ZM127.25 53.0625V57H126.245V48.2727H127.25V51.4773H127.336C127.489 51.1392 127.719 50.8707 128.026 50.6719C128.336 50.4702 128.748 50.3693 129.262 50.3693C129.708 50.3693 130.098 50.4588 130.434 50.6378C130.769 50.8139 131.029 51.0852 131.213 51.4517C131.401 51.8153 131.495 52.2784 131.495 52.8409V57H130.489V52.9091C130.489 52.3892 130.354 51.9872 130.084 51.7031C129.817 51.4162 129.446 51.2727 128.972 51.2727C128.642 51.2727 128.347 51.3423 128.086 51.4815C127.827 51.6207 127.623 51.8239 127.472 52.0909C127.324 52.358 127.25 52.6818 127.25 53.0625ZM142.079 57.1364C141.448 57.1364 140.904 56.9972 140.447 56.7188C139.992 56.4375 139.641 56.0455 139.394 55.5426C139.15 55.0369 139.028 54.4489 139.028 53.7784C139.028 53.108 139.15 52.517 139.394 52.0057C139.641 51.4915 139.985 51.0909 140.425 50.804C140.869 50.5142 141.386 50.3693 141.977 50.3693C142.317 50.3693 142.654 50.4261 142.987 50.5398C143.319 50.6534 143.621 50.8381 143.894 51.0938C144.167 51.3466 144.384 51.6818 144.546 52.0994C144.708 52.517 144.789 53.0312 144.789 53.642V54.0682H139.744V53.1989H143.766C143.766 52.8295 143.692 52.5 143.545 52.2102C143.4 51.9205 143.192 51.6918 142.923 51.5241C142.656 51.3565 142.34 51.2727 141.977 51.2727C141.576 51.2727 141.229 51.3722 140.937 51.571C140.647 51.767 140.424 52.0227 140.268 52.3381C140.112 52.6534 140.033 52.9915 140.033 53.3523V53.9318C140.033 54.4261 140.119 54.8452 140.289 55.1889C140.462 55.5298 140.702 55.7898 141.009 55.9688C141.316 56.1449 141.673 56.233 142.079 56.233C142.343 56.233 142.582 56.196 142.795 56.1222C143.011 56.0455 143.197 55.9318 143.353 55.7812C143.509 55.6278 143.63 55.4375 143.715 55.2102L144.687 55.483C144.585 55.8125 144.413 56.1023 144.171 56.3523C143.93 56.5994 143.631 56.7926 143.276 56.9318C142.921 57.0682 142.522 57.1364 142.079 57.1364ZM168.853 51H167.796C167.734 50.696 167.624 50.429 167.468 50.1989C167.315 49.9688 167.127 49.7756 166.906 49.6193C166.687 49.4602 166.444 49.3409 166.177 49.2614C165.91 49.1818 165.631 49.142 165.342 49.142C164.813 49.142 164.335 49.2756 163.906 49.5426C163.479 49.8097 163.14 50.2031 162.887 50.723C162.637 51.2429 162.512 51.8807 162.512 52.6364C162.512 53.392 162.637 54.0298 162.887 54.5497C163.14 55.0696 163.479 55.4631 163.906 55.7301C164.335 55.9972 164.813 56.1307 165.342 56.1307C165.631 56.1307 165.91 56.0909 166.177 56.0114C166.444 55.9318 166.687 55.8139 166.906 55.6577C167.127 55.4986 167.315 55.304 167.468 55.0739C167.624 54.8409 167.734 54.5739 167.796 54.2727H168.853C168.773 54.7187 168.629 55.1179 168.418 55.4702C168.208 55.8224 167.947 56.1222 167.634 56.3693C167.322 56.6136 166.971 56.7997 166.582 56.9276C166.195 57.0554 165.782 57.1193 165.342 57.1193C164.597 57.1193 163.935 56.9375 163.356 56.5739C162.776 56.2102 162.32 55.6932 161.988 55.0227C161.656 54.3523 161.489 53.5568 161.489 52.6364C161.489 51.7159 161.656 50.9205 161.988 50.25C162.32 49.5795 162.776 49.0625 163.356 48.6989C163.935 48.3352 164.597 48.1534 165.342 48.1534C165.782 48.1534 166.195 48.2173 166.582 48.3452C166.971 48.473 167.322 48.6605 167.634 48.9077C167.947 49.152 168.208 49.4503 168.418 49.8026C168.629 50.152 168.773 50.5511 168.853 51ZM178.35 57.1534C177.936 57.1534 177.559 57.0753 177.221 56.919C176.883 56.7599 176.615 56.5312 176.416 56.233C176.217 55.9318 176.118 55.5682 176.118 55.142C176.118 54.767 176.191 54.4631 176.339 54.2301C176.487 53.9943 176.684 53.8097 176.931 53.6761C177.179 53.5426 177.451 53.4432 177.75 53.3778C178.051 53.3097 178.353 53.2557 178.657 53.2159C179.055 53.1648 179.377 53.1264 179.625 53.1009C179.875 53.0724 180.056 53.0256 180.17 52.9602C180.287 52.8949 180.345 52.7812 180.345 52.6193V52.5852C180.345 52.1648 180.23 51.8381 180 51.6051C179.772 51.3722 179.427 51.2557 178.964 51.2557C178.484 51.2557 178.108 51.3608 177.835 51.571C177.562 51.7812 177.37 52.0057 177.26 52.2443L176.305 51.9034C176.475 51.5057 176.703 51.196 176.987 50.9744C177.274 50.75 177.586 50.5937 177.924 50.5057C178.265 50.4148 178.6 50.3693 178.93 50.3693C179.14 50.3693 179.382 50.3949 179.654 50.446C179.93 50.4943 180.196 50.5952 180.451 50.7486C180.71 50.902 180.924 51.1335 181.095 51.4432C181.265 51.7528 181.35 52.1676 181.35 52.6875V57H180.345V56.1136H180.294C180.225 56.2557 180.112 56.4077 179.953 56.5696C179.794 56.7315 179.582 56.8693 179.318 56.983C179.054 57.0966 178.731 57.1534 178.35 57.1534ZM178.504 56.25C178.902 56.25 179.237 56.1719 179.51 56.0156C179.785 55.8594 179.993 55.6577 180.132 55.4105C180.274 55.1634 180.345 54.9034 180.345 54.6307V53.7102C180.302 53.7614 180.208 53.8082 180.064 53.8509C179.922 53.8906 179.757 53.9261 179.569 53.9574C179.385 53.9858 179.204 54.0114 179.028 54.0341C178.855 54.054 178.714 54.071 178.606 54.0852C178.345 54.1193 178.1 54.1747 177.873 54.2514C177.649 54.3253 177.467 54.4375 177.328 54.5881C177.191 54.7358 177.123 54.9375 177.123 55.1932C177.123 55.5426 177.252 55.8068 177.511 55.9858C177.772 56.1619 178.103 56.25 178.504 56.25ZM190.192 48.2727V57H189.186V48.2727H190.192ZM198.034 57V50.4545H199.005V51.4773H199.091C199.227 51.1278 199.447 50.8565 199.751 50.6634C200.055 50.4673 200.42 50.3693 200.846 50.3693C201.278 50.3693 201.637 50.4673 201.924 50.6634C202.214 50.8565 202.44 51.1278 202.602 51.4773H202.67C202.838 51.1392 203.089 50.8707 203.424 50.6719C203.76 50.4702 204.162 50.3693 204.63 50.3693C205.216 50.3693 205.694 50.5526 206.066 50.919C206.439 51.2827 206.625 51.8494 206.625 52.6193V57H205.619V52.6193C205.619 52.1364 205.487 51.7912 205.223 51.5838C204.958 51.3764 204.647 51.2727 204.289 51.2727C203.829 51.2727 203.473 51.4119 203.22 51.6903C202.967 51.9659 202.841 52.3153 202.841 52.7386V57H201.818V52.517C201.818 52.1449 201.697 51.8452 201.456 51.6179C201.214 51.3878 200.903 51.2727 200.522 51.2727C200.261 51.2727 200.017 51.3423 199.789 51.4815C199.565 51.6207 199.383 51.8139 199.244 52.0611C199.108 52.3054 199.039 52.5881 199.039 52.9091V57H198.034Z" fill="#1B1B1B" fill-opacity="0.75"/>
</svg>
