<svg width="240" height="60" viewBox="0 0 240 60" fill="none" xmlns="http://www.w3.org/2000/svg">
<path d="M60.5336 2V20.6004V39.2008H55.3736L36.4595 11.9178H36.1143V39.2008H30.5V2H35.6964L54.6287 29.3193H54.9739V2H60.5336Z" fill="#A8823D" fill-opacity="0.95"/>
<path d="M72.8027 2V39.2008H67.1885V2H72.8027Z" fill="#A8823D" fill-opacity="0.95"/>
<path d="M82.6962 2L93.0527 32.2983H93.4705L103.827 2H109.895L96.0235 40L93.0527 36.6432L90.2675 40L76.6277 2H82.6962Z" fill="#A8823D" fill-opacity="0.95"/>
<path d="M114.374 39.2008V2H127.637C130.52 2 132.912 2.49649 134.814 3.48948C136.728 4.48247 138.157 5.85691 139.102 7.61281C140.047 9.3566 140.519 11.3728 140.519 13.6616C140.519 15.9382 140.041 17.9423 139.084 19.674C138.139 21.3936 136.71 22.7317 134.796 23.6883C132.894 24.645 130.502 25.1233 127.619 25.1233H117.571V20.2916H127.11C128.927 20.2916 130.405 20.0312 131.544 19.5105C132.694 18.9898 133.536 18.2329 134.069 17.24C134.602 16.247 134.868 15.0542 134.868 13.6616C134.868 12.2569 134.596 11.0398 134.051 10.0105C133.518 8.9812 132.676 8.19407 131.525 7.64914C130.387 7.0921 128.891 6.81358 127.038 6.81358H119.988V39.2008H114.374ZM132.743 22.4168L144.949 38.2417L135.541 39.2008L126.529 22.4168H132.743Z" fill="#A8823D" fill-opacity="0.95"/>
<path d="M148.319 39.2008L144.949 38.2417L155.751 2.31969H162.237L175.628 39.2008H169.668L159.148 8.75717H158.858L148.319 39.2008ZM149.319 24.6329H168.651V29.3556H149.319V24.6329Z" fill="#A8823D" fill-opacity="0.95"/>
<path d="M209.5 2V39.2008H204.34L185.426 11.9178H185.081V39.2008H179.466V2H184.663L203.595 29.3193H203.94V2H209.5Z" fill="#A8823D" fill-opacity="0.95"/>
<path d="M45.0991 58L42.7127 49.2727H43.7866L45.6104 56.3807H45.6957L47.5536 49.2727H48.7468L50.6048 56.3807H50.69L52.5138 49.2727H53.5877L51.2013 58H50.1104L48.1843 51.0455H48.1161L46.19 58H45.0991ZM62.9031 58.1364C62.2724 58.1364 61.7283 57.9972 61.271 57.7188C60.8164 57.4375 60.4656 57.0455 60.2184 56.5426C59.9741 56.0369 59.8519 55.4489 59.8519 54.7784C59.8519 54.108 59.9741 53.517 60.2184 53.0057C60.4656 52.4915 60.8093 52.0909 61.2496 51.804C61.6928 51.5142 62.2099 51.3693 62.8008 51.3693C63.1417 51.3693 63.4783 51.4261 63.8107 51.5398C64.1431 51.6534 64.4457 51.8381 64.7184 52.0938C64.9911 52.3466 65.2085 52.6818 65.3704 53.0994C65.5323 53.517 65.6133 54.0312 65.6133 54.642V55.0682H60.5678V54.1989H64.5906C64.5906 53.8295 64.5167 53.5 64.369 53.2102C64.2241 52.9205 64.0167 52.6918 63.7468 52.5241C63.4798 52.3565 63.1644 52.2727 62.8008 52.2727C62.4002 52.2727 62.0536 52.3722 61.761 52.571C61.4712 52.767 61.2482 53.0227 61.092 53.3381C60.9357 53.6534 60.8576 53.9915 60.8576 54.3523V54.9318C60.8576 55.4261 60.9428 55.8452 61.1133 56.1889C61.2866 56.5298 61.5266 56.7898 61.8335 56.9688C62.1403 57.1449 62.4968 57.233 62.9031 57.233C63.1673 57.233 63.4059 57.196 63.619 57.1222C63.8349 57.0455 64.021 56.9318 64.1772 56.7812C64.3335 56.6278 64.4542 56.4375 64.5394 56.2102L65.511 56.483C65.4087 56.8125 65.2369 57.1023 64.9954 57.3523C64.7539 57.5994 64.4556 57.7926 64.1005 57.9318C63.7454 58.0682 63.3462 58.1364 62.9031 58.1364ZM75.0692 58.1534C74.6545 58.1534 74.2781 58.0753 73.94 57.919C73.6019 57.7599 73.3335 57.5312 73.1346 57.233C72.9357 56.9318 72.8363 56.5682 72.8363 56.142C72.8363 55.767 72.9102 55.4631 73.0579 55.2301C73.2056 54.9943 73.4031 54.8097 73.6502 54.6761C73.8974 54.5426 74.1701 54.4432 74.4684 54.3778C74.7695 54.3097 75.0721 54.2557 75.3761 54.2159C75.7738 54.1648 76.0962 54.1264 76.3434 54.1009C76.5934 54.0724 76.7752 54.0256 76.8888 53.9602C77.0053 53.8949 77.0636 53.7812 77.0636 53.6193V53.5852C77.0636 53.1648 76.9485 52.8381 76.7184 52.6051C76.4911 52.3722 76.146 52.2557 75.6829 52.2557C75.2028 52.2557 74.8263 52.3608 74.5536 52.571C74.2809 52.7812 74.0891 53.0057 73.9783 53.2443L73.0238 52.9034C73.1942 52.5057 73.4215 52.196 73.7056 51.9744C73.9925 51.75 74.305 51.5937 74.6431 51.5057C74.984 51.4148 75.3192 51.3693 75.6488 51.3693C75.859 51.3693 76.1005 51.3949 76.3732 51.446C76.6488 51.4943 76.9144 51.5952 77.1701 51.7486C77.4286 51.902 77.6431 52.1335 77.8136 52.4432C77.984 52.7528 78.0692 53.1676 78.0692 53.6875V58H77.0636V57.1136H77.0124C76.9442 57.2557 76.8306 57.4077 76.6715 57.5696C76.5124 57.7315 76.3008 57.8693 76.0366 57.983C75.7724 58.0966 75.4499 58.1534 75.0692 58.1534ZM75.2227 57.25C75.6204 57.25 75.9556 57.1719 76.2283 57.0156C76.5039 56.8594 76.7113 56.6577 76.8505 56.4105C76.9925 56.1634 77.0636 55.9034 77.0636 55.6307V54.7102C77.021 54.7614 76.9272 54.8082 76.7823 54.8509C76.6403 54.8906 76.4755 54.9261 76.288 54.9574C76.1033 54.9858 75.9229 55.0114 75.7468 55.0341C75.5735 55.054 75.4329 55.071 75.3249 55.0852C75.0636 55.1193 74.8192 55.1747 74.592 55.2514C74.3675 55.3253 74.1857 55.4375 74.0465 55.5881C73.9102 55.7358 73.842 55.9375 73.842 56.1932C73.842 56.5426 73.9712 56.8068 74.2298 56.9858C74.4911 57.1619 74.8221 57.25 75.2227 57.25ZM85.9048 58V51.4545H86.8764V52.4432H86.9446C87.0639 52.1193 87.2798 51.8565 87.5923 51.6548C87.9048 51.4531 88.2571 51.3523 88.6491 51.3523C88.723 51.3523 88.8153 51.3537 88.9261 51.3565C89.0369 51.3594 89.1207 51.3636 89.1776 51.3693V52.392C89.1435 52.3835 89.0653 52.3707 88.9432 52.3537C88.8239 52.3338 88.6974 52.3239 88.5639 52.3239C88.2457 52.3239 87.9616 52.3906 87.7116 52.5241C87.4645 52.6548 87.2685 52.8366 87.1236 53.0696C86.9815 53.2997 86.9105 53.5625 86.9105 53.858V58H85.9048ZM108.591 51.4545V52.3068H105.199V51.4545H108.591ZM106.188 49.8864H107.194V56.125C107.194 56.4091 107.235 56.6222 107.317 56.7642C107.402 56.9034 107.51 56.9972 107.641 57.0455C107.775 57.0909 107.915 57.1136 108.063 57.1136C108.174 57.1136 108.265 57.108 108.336 57.0966C108.407 57.0824 108.463 57.071 108.506 57.0625L108.711 57.9659C108.642 57.9915 108.547 58.017 108.425 58.0426C108.303 58.071 108.148 58.0852 107.961 58.0852C107.676 58.0852 107.398 58.0241 107.125 57.902C106.855 57.7798 106.631 57.5938 106.452 57.3438C106.276 57.0938 106.188 56.7784 106.188 56.3977V49.8864ZM117.25 54.0625V58H116.245V49.2727H117.25V52.4773H117.336C117.489 52.1392 117.719 51.8707 118.026 51.6719C118.336 51.4702 118.748 51.3693 119.262 51.3693C119.708 51.3693 120.098 51.4588 120.434 51.6378C120.769 51.8139 121.029 52.0852 121.213 52.4517C121.401 52.8153 121.495 53.2784 121.495 53.8409V58H120.489V53.9091C120.489 53.3892 120.354 52.9872 120.084 52.7031C119.817 52.4162 119.446 52.2727 118.972 52.2727C118.642 52.2727 118.347 52.3423 118.086 52.4815C117.827 52.6207 117.623 52.8239 117.472 53.0909C117.324 53.358 117.25 53.6818 117.25 54.0625ZM132.079 58.1364C131.448 58.1364 130.904 57.9972 130.447 57.7188C129.992 57.4375 129.641 57.0455 129.394 56.5426C129.15 56.0369 129.028 55.4489 129.028 54.7784C129.028 54.108 129.15 53.517 129.394 53.0057C129.641 52.4915 129.985 52.0909 130.425 51.804C130.869 51.5142 131.386 51.3693 131.977 51.3693C132.317 51.3693 132.654 51.4261 132.987 51.5398C133.319 51.6534 133.621 51.8381 133.894 52.0938C134.167 52.3466 134.384 52.6818 134.546 53.0994C134.708 53.517 134.789 54.0312 134.789 54.642V55.0682H129.744V54.1989H133.766C133.766 53.8295 133.692 53.5 133.545 53.2102C133.4 52.9205 133.192 52.6918 132.923 52.5241C132.656 52.3565 132.34 52.2727 131.977 52.2727C131.576 52.2727 131.229 52.3722 130.937 52.571C130.647 52.767 130.424 53.0227 130.268 53.3381C130.112 53.6534 130.033 53.9915 130.033 54.3523V54.9318C130.033 55.4261 130.119 55.8452 130.289 56.1889C130.462 56.5298 130.702 56.7898 131.009 56.9688C131.316 57.1449 131.673 57.233 132.079 57.233C132.343 57.233 132.582 57.196 132.795 57.1222C133.011 57.0455 133.197 56.9318 133.353 56.7812C133.509 56.6278 133.63 56.4375 133.715 56.2102L134.687 56.483C134.585 56.8125 134.413 57.1023 134.171 57.3523C133.93 57.5994 133.631 57.7926 133.276 57.9318C132.921 58.0682 132.522 58.1364 132.079 58.1364ZM158.853 52H157.796C157.734 51.696 157.624 51.429 157.468 51.1989C157.315 50.9688 157.127 50.7756 156.906 50.6193C156.687 50.4602 156.444 50.3409 156.177 50.2614C155.91 50.1818 155.631 50.142 155.342 50.142C154.813 50.142 154.335 50.2756 153.906 50.5426C153.479 50.8097 153.14 51.2031 152.887 51.723C152.637 52.2429 152.512 52.8807 152.512 53.6364C152.512 54.392 152.637 55.0298 152.887 55.5497C153.14 56.0696 153.479 56.4631 153.906 56.7301C154.335 56.9972 154.813 57.1307 155.342 57.1307C155.631 57.1307 155.91 57.0909 156.177 57.0114C156.444 56.9318 156.687 56.8139 156.906 56.6577C157.127 56.4986 157.315 56.304 157.468 56.0739C157.624 55.8409 157.734 55.5739 157.796 55.2727H158.853C158.773 55.7187 158.629 56.1179 158.418 56.4702C158.208 56.8224 157.947 57.1222 157.634 57.3693C157.322 57.6136 156.971 57.7997 156.582 57.9276C156.195 58.0554 155.782 58.1193 155.342 58.1193C154.597 58.1193 153.935 57.9375 153.356 57.5739C152.776 57.2102 152.32 56.6932 151.988 56.0227C151.656 55.3523 151.489 54.5568 151.489 53.6364C151.489 52.7159 151.656 51.9205 151.988 51.25C152.32 50.5795 152.776 50.0625 153.356 49.6989C153.935 49.3352 154.597 49.1534 155.342 49.1534C155.782 49.1534 156.195 49.2173 156.582 49.3452C156.971 49.473 157.322 49.6605 157.634 49.9077C157.947 50.152 158.208 50.4503 158.418 50.8026C158.629 51.152 158.773 51.5511 158.853 52ZM168.35 58.1534C167.936 58.1534 167.559 58.0753 167.221 57.919C166.883 57.7599 166.615 57.5312 166.416 57.233C166.217 56.9318 166.118 56.5682 166.118 56.142C166.118 55.767 166.191 55.4631 166.339 55.2301C166.487 54.9943 166.684 54.8097 166.931 54.6761C167.179 54.5426 167.451 54.4432 167.75 54.3778C168.051 54.3097 168.353 54.2557 168.657 54.2159C169.055 54.1648 169.377 54.1264 169.625 54.1009C169.875 54.0724 170.056 54.0256 170.17 53.9602C170.287 53.8949 170.345 53.7812 170.345 53.6193V53.5852C170.345 53.1648 170.23 52.8381 170 52.6051C169.772 52.3722 169.427 52.2557 168.964 52.2557C168.484 52.2557 168.108 52.3608 167.835 52.571C167.562 52.7812 167.37 53.0057 167.26 53.2443L166.305 52.9034C166.475 52.5057 166.703 52.196 166.987 51.9744C167.274 51.75 167.586 51.5937 167.924 51.5057C168.265 51.4148 168.6 51.3693 168.93 51.3693C169.14 51.3693 169.382 51.3949 169.654 51.446C169.93 51.4943 170.196 51.5952 170.451 51.7486C170.71 51.902 170.924 52.1335 171.095 52.4432C171.265 52.7528 171.35 53.1676 171.35 53.6875V58H170.345V57.1136H170.294C170.225 57.2557 170.112 57.4077 169.953 57.5696C169.794 57.7315 169.582 57.8693 169.318 57.983C169.054 58.0966 168.731 58.1534 168.35 58.1534ZM168.504 57.25C168.902 57.25 169.237 57.1719 169.51 57.0156C169.785 56.8594 169.993 56.6577 170.132 56.4105C170.274 56.1634 170.345 55.9034 170.345 55.6307V54.7102C170.302 54.7614 170.208 54.8082 170.064 54.8509C169.922 54.8906 169.757 54.9261 169.569 54.9574C169.385 54.9858 169.204 55.0114 169.028 55.0341C168.855 55.054 168.714 55.071 168.606 55.0852C168.345 55.1193 168.1 55.1747 167.873 55.2514C167.649 55.3253 167.467 55.4375 167.328 55.5881C167.191 55.7358 167.123 55.9375 167.123 56.1932C167.123 56.5426 167.252 56.8068 167.511 56.9858C167.772 57.1619 168.103 57.25 168.504 57.25ZM180.192 49.2727V58H179.186V49.2727H180.192ZM188.034 58V51.4545H189.005V52.4773H189.091C189.227 52.1278 189.447 51.8565 189.751 51.6634C190.055 51.4673 190.42 51.3693 190.846 51.3693C191.278 51.3693 191.637 51.4673 191.924 51.6634C192.214 51.8565 192.44 52.1278 192.602 52.4773H192.67C192.838 52.1392 193.089 51.8707 193.424 51.6719C193.76 51.4702 194.162 51.3693 194.63 51.3693C195.216 51.3693 195.694 51.5526 196.066 51.919C196.439 52.2827 196.625 52.8494 196.625 53.6193V58H195.619V53.6193C195.619 53.1364 195.487 52.7912 195.223 52.5838C194.958 52.3764 194.647 52.2727 194.289 52.2727C193.829 52.2727 193.473 52.4119 193.22 52.6903C192.967 52.9659 192.841 53.3153 192.841 53.7386V58H191.818V53.517C191.818 53.1449 191.697 52.8452 191.456 52.6179C191.214 52.3878 190.903 52.2727 190.522 52.2727C190.261 52.2727 190.017 52.3423 189.789 52.4815C189.565 52.6207 189.383 52.8139 189.244 53.0611C189.108 53.3054 189.039 53.5881 189.039 53.9091V58H188.034Z" fill="#1B1B1B" fill-opacity="0.85"/>
</svg>
