<svg width="160" height="40" viewBox="0 0 160 40" fill="none" xmlns="http://www.w3.org/2000/svg">
<path d="M36.1477 6V19.7055V33.4111H32.3425L18.3947 13.3078H18.1401V33.4111H14V6H17.832L31.7932 26.13H32.0478V6H36.1477Z" fill="#A8823D" fill-opacity="0.95"/>
<path d="M45.1953 6V33.4111H41.0552V6H45.1953Z" fill="#A8823D" fill-opacity="0.95"/>
<path d="M52.4911 6L60.1282 28.325H60.4364L68.0735 6H72.5486L62.319 34L60.1282 31.5266L58.0744 34L48.016 6H52.4911Z" fill="#A8823D" fill-opacity="0.95"/>
<path d="M75.851 33.4111V6H85.6319C87.7578 6 89.5219 6.36584 90.9243 7.09751C92.3356 7.82919 93.3896 8.84194 94.0863 10.1358C94.783 11.4207 95.1314 12.9063 95.1314 14.5927C95.1314 16.2702 94.7786 17.747 94.0729 19.0229C93.3762 20.29 92.3222 21.276 90.9109 21.9809C89.5085 22.6858 87.7444 23.0382 85.6185 23.0382H78.2091V19.478H85.2433C86.5832 19.478 87.6729 19.2862 88.5125 18.9025C89.3611 18.5188 89.9819 17.9611 90.3749 17.2294C90.7679 16.4978 90.9645 15.6189 90.9645 14.5927C90.9645 13.5577 90.7635 12.6609 90.3615 11.9025C89.9685 11.144 89.3477 10.5641 88.4991 10.1625C87.6595 9.75207 86.5564 9.54685 85.1897 9.54685H79.9911V33.4111H75.851ZM89.3968 21.044L98.3985 32.7044L91.4602 33.4111L84.8145 21.044H89.3968Z" fill="#A8823D" fill-opacity="0.95"/>
<path d="M100.884 33.4111L98.3985 32.7044L106.364 6.23556H111.147L121.022 33.4111H116.627L108.869 10.979H108.655L100.884 33.4111ZM101.621 22.6769H115.877V26.1568H101.621V22.6769Z" fill="#A8823D" fill-opacity="0.95"/>
<path d="M146 6V33.4111H142.195L128.247 13.3078H127.992V33.4111H123.852V6H127.684L141.645 26.13H141.9V6H146Z" fill="#A8823D" fill-opacity="0.95"/>
</svg>
